<svg xmlns="http://www.w3.org/2000/svg" viewBox="0 0 1024 600">
	<g opacity="0.2">
		<path d="M44.1,278a2.72,2.72,0,0,1,3.23-3.39l80.15,11a6.61,6.61,0,0,1,5,4.4l10.12,36.46a2.57,2.57,0,0,1-2.92,3.47l-83.49-8.11a5.66,5.66,0,0,1-4.72-4.32Zm108.33,49.44a6.37,6.37,0,0,0,5.09,4.23l68.64,6.67c2.19.21,3.37-1.31,2.63-3.37l-12.11-33.54a7.28,7.28,0,0,0-5.32-4.3L144.92,288c-2.18-.3-3.46,1.19-2.86,3.3Zm84.64,8.34a7,7,0,0,0,5.36,4.14l57.14,5.55c2.19.22,3.27-1.26,2.4-3.28l-13.36-31a7.9,7.9,0,0,0-5.55-4.22l-55.68-7.64c-2.18-.3-3.34,1.14-2.58,3.2Zm72,7.11a7.54,7.54,0,0,0,5.58,4.05l48.05,4.67c2.19.21,3.19-1.23,2.22-3.21l-14.12-28.78a8.42,8.42,0,0,0-5.72-4.14L298,309c-2.18-.3-3.24,1.11-2.36,3.12Zm-246,36.33a5.31,5.31,0,0,0,4.73,4.11l87.73,3.86a2.74,2.74,0,0,0,2.93-3.68L146.93,342a6.26,6.26,0,0,0-5.06-4.22l-84.08-7.56a2.86,2.86,0,0,0-3.24,3.57ZM168.66,384a5.93,5.93,0,0,0,5.1,4l71.38,3.14a2.49,2.49,0,0,0,2.63-3.58L234.11,349.7a6.88,6.88,0,0,0-5.34-4.13l-69-6.21a2.56,2.56,0,0,0-2.88,3.49Zm87.66,4a6.5,6.5,0,0,0,5.38,3.93l58.88,2.59c2.2.1,3.29-1.47,2.41-3.49l-15-34.71a7.39,7.39,0,0,0-5.56-4L245.08,347c-2.19-.19-3.36,1.33-2.6,3.4Zm73.93,3.36a7.05,7.05,0,0,0,5.6,3.84L385,397.28c2.2.1,3.21-1.44,2.24-3.42l-15.7-32a7.93,7.93,0,0,0-5.74-4l-48.21-4.33c-2.19-.2-3.26,1.29-2.38,3.3ZM76.16,449.15A4.92,4.92,0,0,0,80.9,453l92.36-1.62a3,3,0,0,0,2.93-3.93L163,399.93a5.84,5.84,0,0,0-5.07-4l-88.37-3.16a3.07,3.07,0,0,0-3.26,3.79Zm110.67-1.86a5.53,5.53,0,0,0,5.11,3.77l74.28-1.3a2.69,2.69,0,0,0,2.64-3.83l-15.48-42.87a6.42,6.42,0,0,0-5.36-3.91l-71.78-2.57a2.75,2.75,0,0,0-2.9,3.71Zm90.84-1.51a6,6,0,0,0,5.38,3.68l60.68-1.06a2.5,2.5,0,0,0,2.42-3.75l-16.81-39a6.91,6.91,0,0,0-5.58-3.81l-59.14-2.12a2.5,2.5,0,0,0-2.61,3.61Zm75.89-1.25a6.52,6.52,0,0,0,5.6,3.6l50.2-.88c2.2,0,3.2-1.69,2.23-3.67l-17.5-35.68a7.34,7.34,0,0,0-5.76-3.73l-49.28-1.77c-2.2-.07-3.27,1.51-2.39,3.53ZM91.13,529.07a4.52,4.52,0,0,0,4.72,3.58l97.46-8.74a3.23,3.23,0,0,0,2.92-4.22L181.05,465a5.4,5.4,0,0,0-5.07-3.75l-93.06,2.53a3.31,3.31,0,0,0-3.26,4Zm116.2-10.37a5,5,0,0,0,5.09,3.49l77.36-6.94a2.93,2.93,0,0,0,2.62-4.12l-17.61-48.78a5.92,5.92,0,0,0-5.36-3.65l-74.71,2a3,3,0,0,0-2.89,3.95Zm94.16-8.37a5.53,5.53,0,0,0,5.37,3.39l62.5-5.6a2.72,2.72,0,0,0,2.4-4l-18.94-43.94a6.39,6.39,0,0,0-5.58-3.57l-60.94,1.66a2.7,2.7,0,0,0-2.61,3.86Zm77.85-6.92a5.94,5.94,0,0,0,5.59,3.31l51.22-4.59a2.57,2.57,0,0,0,2.22-3.95l-19.57-39.9A6.78,6.78,0,0,0,413,454.8l-50.34,1.36a2.51,2.51,0,0,0-2.39,3.78Z" fill="#065b8c" />
		<path d="M454.73,510.27,355.1,310.73a5.31,5.31,0,0,0-3.51-2.62L28.26,260.6a7,7,0,0,0-1-.07c-2,0-3.31,1-3.07,2.39L72.62,549.54a5.88,5.88,0,0,0,5.93,4.58,5.48,5.48,0,0,0,.7,0L244,536.38v13l-52.9,6.33-4.46,21.45L336.16,556.3l-32.22-14.09L264,547V534.23l189.84-20.39C455.25,513.69,455.64,512.09,454.73,510.27ZM264,530.22l-20,2.14L78.82,550.11h-.27a2,2,0,0,1-2-1.24l-48-284.19,322.38,47.37a1.87,1.87,0,0,1,.59.45l98.71,197.7Z" fill="#222" />
	</g>
	<circle cx="824" cy="199" r="117" fill="#f07e0f" opacity="0.2" />
	<path class="rays" d="M848,65.78H800l24-41.56ZM736.61,47.63v48l41.57-24Zm-64,64,24,41.57,24-41.57ZM649.22,199l41.56,24V175Zm23.41,87.39h48l-24-41.57Zm64,64,41.57-24-41.57-24ZM824,373.78l24-41.56H800Zm87.39-23.41v-48l-41.57,24Zm64-64-24-41.57-24,41.57ZM998.78,199l-41.56-24v48Zm-23.41-87.39h-48l24,41.57Zm-64-64-41.57,24,41.57,24Z" fill="#f07e0f" opacity="0.2" />
</svg>
